<svg xmlns="http://www.w3.org/2000/svg" viewBox="0 0 900 400" font-family="sans-serif">
  <defs>
    <marker id="arrowYellow" markerWidth="10" markerHeight="7" refX="9" refY="3.5" orient="auto">
      <polygon points="0 0, 10 3.5, 0 7" fill="#f9e2af"/>
    </marker>
    <marker id="arrowGreen" markerWidth="10" markerHeight="7" refX="9" refY="3.5" orient="auto">
      <polygon points="0 0, 10 3.5, 0 7" fill="#a6e3a1"/>
    </marker>
  </defs>

  <rect width="900" height="400" rx="12" fill="#1e1e2e"/>

  <!-- Title -->
  <text x="450" y="35" text-anchor="middle" fill="#cdd6f4" font-size="20" font-weight="bold">Linear Probing — Insert "Diana"</text>
  <text x="450" y="58" text-anchor="middle" fill="#a6adc8" font-size="14">hash("Diana") = 4, but slot 4 is taken!</text>

  <!-- Hash function -->
  <rect x="30" y="80" width="200" height="42" rx="8" fill="#313244" stroke="#585b70" stroke-width="1.5"/>
  <text x="130" y="106" text-anchor="middle" fill="#f5c2e7" font-size="14" font-family="monospace">hash("Diana") = 4</text>

  <!-- Array slots -->
  <!-- Slot 0: empty -->
  <rect x="30" y="160" width="120" height="50" rx="6" fill="#6c7086" stroke="#585b70" stroke-width="1.5"/>
  <text x="90" y="190" text-anchor="middle" fill="#1e1e2e" font-size="14" font-weight="bold">[empty]</text>
  <text x="90" y="145" text-anchor="middle" fill="#a6adc8" font-size="12">0</text>

  <!-- Slot 1: Bob -->
  <rect x="160" y="160" width="120" height="50" rx="6" fill="#a6e3a1" stroke="#585b70" stroke-width="1.5"/>
  <text x="220" y="183" text-anchor="middle" fill="#1e1e2e" font-size="13" font-family="monospace">Bob</text>
  <text x="220" y="200" text-anchor="middle" fill="#1e1e2e" font-size="11">82</text>
  <text x="220" y="145" text-anchor="middle" fill="#a6adc8" font-size="12">1</text>

  <!-- Slot 2: empty -->
  <rect x="290" y="160" width="120" height="50" rx="6" fill="#6c7086" stroke="#585b70" stroke-width="1.5"/>
  <text x="350" y="190" text-anchor="middle" fill="#1e1e2e" font-size="14" font-weight="bold">[empty]</text>
  <text x="350" y="145" text-anchor="middle" fill="#a6adc8" font-size="12">2</text>

  <!-- Slot 3: Charlie -->
  <rect x="420" y="160" width="120" height="50" rx="6" fill="#a6e3a1" stroke="#585b70" stroke-width="1.5"/>
  <text x="480" y="183" text-anchor="middle" fill="#1e1e2e" font-size="13" font-family="monospace">Charlie</text>
  <text x="480" y="200" text-anchor="middle" fill="#1e1e2e" font-size="11">91</text>
  <text x="480" y="145" text-anchor="middle" fill="#a6adc8" font-size="12">3</text>

  <!-- Slot 4: Alice (collision!) -->
  <rect x="550" y="160" width="120" height="50" rx="6" fill="#a6e3a1" stroke="#f38ba8" stroke-width="3"/>
  <text x="610" y="183" text-anchor="middle" fill="#1e1e2e" font-size="13" font-family="monospace">Alice</text>
  <text x="610" y="200" text-anchor="middle" fill="#1e1e2e" font-size="11">95</text>
  <text x="610" y="145" text-anchor="middle" fill="#a6adc8" font-size="12">4</text>

  <!-- Slot 5: Eve (also occupied!) -->
  <rect x="680" y="160" width="120" height="50" rx="6" fill="#a6e3a1" stroke="#f38ba8" stroke-width="3"/>
  <text x="740" y="183" text-anchor="middle" fill="#1e1e2e" font-size="13" font-family="monospace">Eve</text>
  <text x="740" y="200" text-anchor="middle" fill="#1e1e2e" font-size="11">88</text>
  <text x="740" y="145" text-anchor="middle" fill="#a6adc8" font-size="12">5</text>

  <!-- Slot 6: empty (insert here!) -->
  <rect x="810" y="160" width="60" height="50" rx="6" fill="#6c7086" stroke="#a6e3a1" stroke-width="3"/>
  <text x="840" y="190" text-anchor="middle" fill="#1e1e2e" font-size="12" font-weight="bold">[empty]</text>
  <text x="840" y="145" text-anchor="middle" fill="#a6adc8" font-size="12">6</text>

  <!-- Arrow from hash to slot 4 -->
  <path d="M230,101 L610,101 L610,155" stroke="#f9e2af" stroke-width="2" fill="none" marker-end="url(#arrowYellow)" stroke-dasharray="6,3"/>

  <!-- Probe arrows: 4 → 5 → 6 -->
  <!-- Step 1: try slot 4 -->
  <text x="610" y="240" text-anchor="middle" fill="#f38ba8" font-size="13" font-weight="bold">OCCUPIED!</text>
  <text x="610" y="257" text-anchor="middle" fill="#f38ba8" font-size="11">different key</text>

  <!-- Arrow 4 → 5 -->
  <path d="M640,270 Q660,290 710,270" stroke="#f9e2af" stroke-width="2" fill="none" marker-end="url(#arrowYellow)"/>
  <text x="675" y="298" text-anchor="middle" fill="#f9e2af" font-size="11">probe +1</text>

  <!-- Step 2: try slot 5 -->
  <text x="740" y="240" text-anchor="middle" fill="#f38ba8" font-size="13" font-weight="bold">OCCUPIED!</text>
  <text x="740" y="257" text-anchor="middle" fill="#f38ba8" font-size="11">different key</text>

  <!-- Arrow 5 → 6 -->
  <path d="M770,270 Q790,290 830,270" stroke="#f9e2af" stroke-width="2" fill="none" marker-end="url(#arrowYellow)"/>
  <text x="800" y="298" text-anchor="middle" fill="#f9e2af" font-size="11">probe +1</text>

  <!-- Step 3: slot 6 is empty — insert! -->
  <text x="840" y="240" text-anchor="middle" fill="#a6e3a1" font-size="13" font-weight="bold">EMPTY!</text>
  <text x="840" y="257" text-anchor="middle" fill="#a6e3a1" font-size="11">insert here</text>

  <!-- Result box -->
  <rect x="30" y="320" width="840" height="55" rx="8" fill="#313244" stroke="#585b70" stroke-width="1.5"/>
  <text x="450" y="345" text-anchor="middle" fill="#f9e2af" font-size="15" font-weight="bold">Linear Probing: (index + 1) % capacity</text>
  <text x="450" y="365" text-anchor="middle" fill="#a6adc8" font-size="13">Scan forward one slot at a time until finding EMPTY or DELETED — then insert there</text>
</svg>
