<svg xmlns="http://www.w3.org/2000/svg" viewBox="0 0 900 420" font-family="'Segoe UI', Arial, sans-serif">
  <defs>
    <marker id="arrowPink" markerWidth="10" markerHeight="7" refX="9" refY="3.5" orient="auto">
      <polygon points="0 0, 10 3.5, 0 7" fill="#8e44ad"/>
    </marker>
  </defs>

  <!-- Title -->
  <text x="450" y="40" text-anchor="middle" fill="#1a1a1a" font-size="20" font-weight="bold">Probing Hash Table — Flat Array of HashSlots</text>

  <!-- Hash function box -->
  <rect x="50" y="70" width="200" height="50" rx="8" fill="#ecf0f1" stroke="#bdc3c7" stroke-width="1.5"/>
  <text x="150" y="100" text-anchor="middle" fill="#2c3e50" font-size="14" font-family="'Consolas', monospace">hash("Diana") = 4</text>

  <!-- Arrow from hash to slot 4 -->
  <path d="M250,95 L340,95 L340,160" stroke="#8e44ad" stroke-width="2" fill="none" marker-end="url(#arrowPink)"/>

  <!-- Column headers -->
  <text x="60" y="185" text-anchor="middle" fill="#555" font-size="12">Index</text>
  <text x="160" y="185" text-anchor="middle" fill="#555" font-size="12">Key</text>
  <text x="275" y="185" text-anchor="middle" fill="#555" font-size="12">Value</text>
  <text x="400" y="185" text-anchor="middle" fill="#555" font-size="12">Status</text>

  <!-- Slot 0: EMPTY -->
  <rect x="30" y="195" width="60" height="36" rx="4" fill="#ecf0f1" stroke="#bdc3c7" stroke-width="1"/>
  <text x="60" y="218" text-anchor="middle" fill="#333" font-size="13" font-family="'Consolas', monospace">0</text>
  <rect x="100" y="195" width="120" height="36" rx="4" fill="#ecf0f1" stroke="#bdc3c7" stroke-width="1"/>
  <rect x="230" y="195" width="90" height="36" rx="4" fill="#ecf0f1" stroke="#bdc3c7" stroke-width="1"/>
  <rect x="330" y="195" width="140" height="36" rx="4" fill="#ecf0f1" stroke="#bdc3c7" stroke-width="1"/>
  <text x="400" y="218" text-anchor="middle" fill="#999" font-size="12" font-style="italic">EMPTY</text>

  <!-- Slot 1: OCCUPIED — Bob -->
  <rect x="30" y="237" width="60" height="36" rx="4" fill="#ecf0f1" stroke="#bdc3c7" stroke-width="1"/>
  <text x="60" y="260" text-anchor="middle" fill="#333" font-size="13" font-family="'Consolas', monospace">1</text>
  <rect x="100" y="237" width="120" height="36" rx="4" fill="#2ecc71" stroke="#27ae60" stroke-width="1"/>
  <text x="160" y="260" text-anchor="middle" fill="#fff" font-size="13" font-family="'Consolas', monospace">Bob</text>
  <rect x="230" y="237" width="90" height="36" rx="4" fill="#2ecc71" stroke="#27ae60" stroke-width="1"/>
  <text x="275" y="260" text-anchor="middle" fill="#fff" font-size="13" font-family="'Consolas', monospace">82</text>
  <rect x="330" y="237" width="140" height="36" rx="4" fill="#2ecc71" stroke="#27ae60" stroke-width="1"/>
  <text x="400" y="260" text-anchor="middle" fill="#fff" font-size="12" font-weight="bold">OCCUPIED</text>

  <!-- Slot 2: DELETED (tombstone) -->
  <rect x="30" y="279" width="60" height="36" rx="4" fill="#ecf0f1" stroke="#bdc3c7" stroke-width="1"/>
  <text x="60" y="302" text-anchor="middle" fill="#333" font-size="13" font-family="'Consolas', monospace">2</text>
  <rect x="100" y="279" width="120" height="36" rx="4" fill="#f39c12" stroke="#e67e22" stroke-width="1"/>
  <rect x="230" y="279" width="90" height="36" rx="4" fill="#f39c12" stroke="#e67e22" stroke-width="1"/>
  <rect x="330" y="279" width="140" height="36" rx="4" fill="#f39c12" stroke="#e67e22" stroke-width="1"/>
  <text x="400" y="302" text-anchor="middle" fill="#fff" font-size="12" font-weight="bold">DELETED</text>

  <!-- Slot 3: OCCUPIED — Charlie -->
  <rect x="30" y="321" width="60" height="36" rx="4" fill="#ecf0f1" stroke="#bdc3c7" stroke-width="1"/>
  <text x="60" y="344" text-anchor="middle" fill="#333" font-size="13" font-family="'Consolas', monospace">3</text>
  <rect x="100" y="321" width="120" height="36" rx="4" fill="#2ecc71" stroke="#27ae60" stroke-width="1"/>
  <text x="160" y="344" text-anchor="middle" fill="#fff" font-size="13" font-family="'Consolas', monospace">Charlie</text>
  <rect x="230" y="321" width="90" height="36" rx="4" fill="#2ecc71" stroke="#27ae60" stroke-width="1"/>
  <text x="275" y="344" text-anchor="middle" fill="#fff" font-size="13" font-family="'Consolas', monospace">91</text>
  <rect x="330" y="321" width="140" height="36" rx="4" fill="#2ecc71" stroke="#27ae60" stroke-width="1"/>
  <text x="400" y="344" text-anchor="middle" fill="#fff" font-size="12" font-weight="bold">OCCUPIED</text>

  <!-- Slot 4: OCCUPIED — Alice -->
  <rect x="30" y="363" width="60" height="36" rx="4" fill="#ecf0f1" stroke="#bdc3c7" stroke-width="1"/>
  <text x="60" y="386" text-anchor="middle" fill="#333" font-size="13" font-family="'Consolas', monospace">4</text>
  <rect x="100" y="363" width="120" height="36" rx="4" fill="#2ecc71" stroke="#27ae60" stroke-width="1"/>
  <text x="160" y="386" text-anchor="middle" fill="#fff" font-size="13" font-family="'Consolas', monospace">Alice</text>
  <rect x="230" y="363" width="90" height="36" rx="4" fill="#2ecc71" stroke="#27ae60" stroke-width="1"/>
  <text x="275" y="386" text-anchor="middle" fill="#fff" font-size="13" font-family="'Consolas', monospace">95</text>
  <rect x="330" y="363" width="140" height="36" rx="4" fill="#2ecc71" stroke="#27ae60" stroke-width="1"/>
  <text x="400" y="386" text-anchor="middle" fill="#fff" font-size="12" font-weight="bold">OCCUPIED</text>

  <!-- Legend -->
  <rect x="550" y="80" width="310" height="130" rx="8" fill="#f4f6f7" stroke="#bdc3c7" stroke-width="1"/>
  <text x="705" y="105" text-anchor="middle" fill="#1a1a1a" font-size="14" font-weight="bold">HashSlot Structure</text>
  <rect x="570" y="115" width="18" height="18" rx="3" fill="#2ecc71"/>
  <text x="598" y="130" fill="#333" font-size="13">OCCUPIED — holds a live entry</text>
  <rect x="570" y="140" width="18" height="18" rx="3" fill="#ecf0f1" stroke="#bdc3c7" stroke-width="1"/>
  <text x="598" y="155" fill="#333" font-size="13">EMPTY — never used</text>
  <rect x="570" y="165" width="18" height="18" rx="3" fill="#f39c12"/>
  <text x="598" y="180" fill="#333" font-size="13">DELETED — tombstone</text>

  <!-- Note about flat array -->
  <rect x="550" y="230" width="310" height="70" rx="8" fill="#f4f6f7" stroke="#bdc3c7" stroke-width="1"/>
  <text x="705" y="255" text-anchor="middle" fill="#8e44ad" font-size="13" font-weight="bold">No pointers, no chains!</text>
  <text x="705" y="275" text-anchor="middle" fill="#555" font-size="12">All entries stored directly in the array</text>
  <text x="705" y="290" text-anchor="middle" fill="#555" font-size="12">Contiguous memory = better cache locality</text>
</svg>
